<?xml version="1.0" encoding="UTF-8" standalone="no"?>
<svg
   width="1300px"
   height="499px"
   viewBox="0 0 1300 499"
   version="1.1"
   id="svg63"
   sodipodi:docname="wave-hero-background.svg"
   inkscape:version="1.1 (c68e22c387, 2021-05-23)"
   xmlns:inkscape="http://www.inkscape.org/namespaces/inkscape"
   xmlns:sodipodi="http://sodipodi.sourceforge.net/DTD/sodipodi-0.dtd"
   xmlns="http://www.w3.org/2000/svg"
   xmlns:svg="http://www.w3.org/2000/svg">
  <sodipodi:namedview
     id="namedview65"
     pagecolor="#ffffff"
     bordercolor="#666666"
     borderopacity="1.0"
     inkscape:pageshadow="2"
     inkscape:pageopacity="0.0"
     inkscape:pagecheckerboard="0"
     showgrid="false"
     inkscape:zoom="1.3130769"
     inkscape:cx="650"
     inkscape:cy="247.89104"
     inkscape:window-width="1920"
     inkscape:window-height="1001"
     inkscape:window-x="1791"
     inkscape:window-y="-9"
     inkscape:window-maximized="1"
     inkscape:current-layer="svg63" />
  <!-- Generator: Sketch 46.1 (44463) - http://www.bohemiancoding.com/sketch -->
  <title
     id="title38">wave_background</title>
  <desc
     id="desc40">Created with Sketch.</desc>
  <defs
     id="defs55">
    <radialGradient
       cx="110.133192%"
       cy="110.133192%"
       fx="116.70788%"
       fy="110.133192%"
       r="147.799618%"
       gradientTransform="translate(1.167079,1.101332),scale(0.357923,1.000000),rotate(-160.534454),translate(-1.167079,-1.101332)"
       id="radialGradient-1">
      <stop
         stop-color="#042855"
         offset="0%"
         id="stop42" />
      <stop
         stop-color="#042855"
         offset="2.91250472%"
         id="stop44" />
      <stop
         stop-color="#042855"
         offset="4.5053357%"
         id="stop46" />
      <stop
         stop-color="#042855"
         offset="6.00516035%"
         id="stop48" />
      <stop
         stop-color="#042855"
         offset="25.4821693%"
         id="stop50" />
      <stop
         stop-color="#042855"
         offset="100%"
         id="stop52" />
    </radialGradient>
  </defs>
  <g
     id="Ressource"
     stroke="none"
     stroke-width="1"
     fill="none"
     fill-rule="evenodd">
    <g
       id="wave_background">
      <g
         id="Group-4">
        <path
           d="M0,1.89326617e-29 L1300,-2.84217094e-14 C1299.84369,99.0658466 1299.84369,259.045733 1300,479.93966 C939.379367,522.288692 978.893507,439.694844 650,450.952014 C321.106493,462.209185 306.589562,511.200484 0,450.952014 C1,327.508342 1,177.191004 0,1.89326617e-29 Z"
           id="Wave"
           fill="#C4C4C4"
           opacity="0.15" />
        <path
           d="M1.00076864,0 L925.701255,0 L1302,0 C1302,223.960943 1302,366.849893 1302,428.66685 C1221.6052,416.744841 1147.81368,399.334739 958.281774,416.744841 C768.749863,434.154944 701.824308,503.789515 426.321989,437.77475 C242.653776,393.764907 100.880036,397.003272 1.00076864,447.489845 L1.00076864,0 Z"
           id="path58"
           fill="url(#radialGradient-1)"
           transform="translate(651.500384, 232.828869) scale(-1, 1) translate(-651.500384, -232.828869) " />
      </g>
    </g>
  </g>
  <path
     style="fill:#a0a0a0;stroke:none;stroke-width:0.76157"
     d="m 640.09959,464.55113 c -43.5085,-2.57764 -75.19208,-7.54959 -146.22144,-22.94585 -82.10194,-17.79634 -113.30176,-22.59264 -182.39602,-28.03944 -41.60263,-3.2796 -89.95718,-4.94246 -126.03983,-4.33437 -52.79562,0.88974 -86.025657,3.94276 -150.622059,13.83841 -17.708856,2.71285 -32.5309121,4.93246 -32.9379028,4.93246 -0.4771753,0 -0.7399832,-76.00334 -0.7399832,-214.00117 V 0 H 651.52314 1301.9039 v 223.46785 223.46786 l -8.5676,-4.05265 c -34.2986,-16.22383 -77.7956,-27.82396 -122.8032,-32.75013 -38.3832,-4.20112 -83.1964,-4.46066 -126.8014,-0.73437 -53.29407,4.55428 -99.58557,12.34857 -169.69943,28.57298 -62.11335,14.37306 -106.34,21.64193 -155.0218,25.47855 -17.4249,1.37326 -63.47136,2.01574 -78.91088,1.10104 z"
     id="path184" />
  <path
     style="fill:#042855;stroke:none;stroke-width:0.76157;fill-opacity:1"
     d="m 637.05331,464.04174 c -46.62469,-3.39932 -67.88937,-6.89468 -158.40656,-26.0379 -62.19492,-13.15343 -91.11274,-17.83868 -136.70182,-22.14837 -46.69979,-4.41468 -78.80335,-6.12026 -125.27826,-6.65569 -73.34002,-0.84494 -103.10177,1.59137 -202.770153,16.59884 -6.1794108,0.93045 -11.3752449,1.54991 -11.5462977,1.37655 C 2.1791665,427.00182 1.7867013,330.81649 1.4780744,213.42999 L 0.91693455,0 H 651.41043 1301.9039 v 223.14001 c 0,122.72701 -0.121,223.14001 -0.2688,223.14001 -0.1479,0 -4.1747,-1.83687 -8.9485,-4.08193 -34.9464,-16.43497 -79.9501,-28.12737 -126.3421,-32.82492 -32.7619,-3.3174 -86.5551,-3.52267 -121.0897,-0.46208 -57.44969,5.09143 -94.7197,11.36066 -174.01871,29.27184 -70.53045,15.93065 -120.71953,23.58573 -167.92619,25.61292 -15.75483,0.67656 -58.18958,0.83404 -66.25659,0.24589 z"
     id="path223" />
  <path
     style="fill:#042855;fill-opacity:1;stroke-width:0.76157"
     d="m 622.96426,462.5998 c -35.68864,-3.18061 -63.63242,-8.01864 -144.6983,-25.05227 -68.32924,-14.35739 -100.10096,-19.17601 -158.02577,-23.96679 -41.85944,-3.46206 -72.07181,-4.60558 -121.8512,-4.612 -59.95573,-0.008 -82.85839,1.81798 -158.019106,12.5967 -18.845188,2.70257 -34.9962728,4.91376 -35.8913011,4.91376 H 2.8512587 L 2.394382,348.60867 C 2.1430998,305.77988 1.7581713,209.82206 1.5389852,135.36907 L 1.1404649,0 H 651.5222 1301.9039 l -2e-4,69.112478 c -10e-5,38.011862 -0.2282,138.224102 -0.5068,222.693862 l -0.5067,153.58138 -4.253,-1.92318 c -33.9105,-15.33433 -61.9476,-23.81073 -100.2107,-30.29645 -28.8513,-4.8904 -51.431,-6.46314 -93.0175,-6.47895 -30.4638,-0.0116 -46.7998,0.6973 -70.7201,3.0688 -51.32019,5.088 -79.32008,9.93433 -160.08549,27.70827 -73.47468,16.16946 -115.02884,22.73947 -161.67781,25.56242 -17.96004,1.08685 -74.02106,0.81353 -87.96134,-0.42883 z"
     id="path1151" />
</svg>
