<?xml version="1.0" encoding="UTF-8" standalone="no"?>
<svg
   width="1294px"
   height="140px"
   viewBox="0 0 1294 140"
   version="1.1"
   id="svg4212"
   sodipodi:docname="wave-header.svg"
   inkscape:version="1.1 (c68e22c387, 2021-05-23)"
   xmlns:inkscape="http://www.inkscape.org/namespaces/inkscape"
   xmlns:sodipodi="http://sodipodi.sourceforge.net/DTD/sodipodi-0.dtd"
   xmlns="http://www.w3.org/2000/svg"
   xmlns:svg="http://www.w3.org/2000/svg">
  <sodipodi:namedview
     id="namedview4214"
     pagecolor="#ffffff"
     bordercolor="#666666"
     borderopacity="1.0"
     inkscape:pageshadow="2"
     inkscape:pageopacity="0.0"
     inkscape:pagecheckerboard="0"
     showgrid="false"
     inkscape:zoom="1.1066461"
     inkscape:cx="646.54818"
     inkscape:cy="68.224162"
     inkscape:window-width="1920"
     inkscape:window-height="1001"
     inkscape:window-x="1791"
     inkscape:window-y="-9"
     inkscape:window-maximized="1"
     inkscape:current-layer="svg4212" />
  <!-- Generator: Sketch 46.1 (44463) - http://www.bohemiancoding.com/sketch -->
  <title
     id="title4187">wave_header</title>
  <desc
     id="desc4189">Created with Sketch.</desc>
  <defs
     id="defs4204">
    <radialGradient
       cx="116.70788%"
       cy="110.133192%"
       fx="116.70788%"
       fy="110.133192%"
       r="147.799618%"
       gradientTransform="translate(1.167079,1.101332),scale(0.096080,1.000000),rotate(-174.580171),translate(-1.167079,-1.101332)"
       id="radialGradient-1">
      <stop
         stop-color="#0069FF"
         offset="0%"
         id="stop4191" />
      <stop
         stop-color="#0269FD"
         offset="2.91250472%"
         id="stop4193" />
      <stop
         stop-color="#0369FC"
         offset="4.5053357%"
         id="stop4195" />
      <stop
         stop-color="#0468FB"
         offset="6.00516035%"
         id="stop4197" />
      <stop
         stop-color="#1165EF"
         offset="25.4821693%"
         id="stop4199" />
      <stop
         stop-color="#4457C0"
         offset="100%"
         id="stop4201" />
    </radialGradient>
  </defs>
  <g
     id="Ressource"
     stroke="none"
     stroke-width="1"
     fill="none"
     fill-rule="evenodd">
    <g
       id="wave_header">
      <g
         id="Group-4-Copy"
         transform="translate(-5.000000, 0.000000)">
        <path
           d="M0,7.64775368e-15 L1300,0 C1299.84369,26.6567778 1299.84369,69.7043914 1300,129.142841 C990.95958,139.998481 1034.96657,114.449017 701.50349,123.93182 C368.040412,133.414622 390.605992,144.317251 0,121.342804 C1,88.1264067 1,47.6788053 0,7.64775368e-15 Z"
           id="Wave"
           fill="#C4C4C4"
           opacity="0.15" />
        <path
           d="M1,0 L925.701033,0 L1302,0 C1302,60.1195162 1302,98.476269 1302,115.070259 C1221.60515,111.869944 1147.81359,107.19642 958.281571,111.869944 C768.749548,116.543469 701.823954,135.235999 426.321472,117.515161 C242.65315,105.701268 100.879326,106.570567 1,120.123056 L1,0 Z"
           id="path4207"
           fill="url(#radialGradient-1)"
           transform="translate(651.500000, 62.500000) scale(-1, 1) translate(-651.500000, -62.500000) " />
      </g>
    </g>
  </g>
  <path
     style="fill:#042855;stroke-width:0.903631"
     d="m 619.43925,124.16083 c -43.88856,-1.25736 -69.8165,-2.47329 -151.81006,-7.11935 -78.56967,-4.45206 -108.43616,-5.47823 -201.96159,-6.93916 -55.07065,-0.86024 -83.03068,-0.86401 -127.86383,-0.0173 -51.917701,0.98057 -108.976183,2.80259 -132.1560745,4.22009 l -8.810405,0.53877 V 57.421958 0 H 646.54818 1296.2591 v 59.639665 59.639665 l -2.0332,-0.0179 c -1.1182,-0.01 -4.7233,-0.40708 -8.0111,-0.88275 -8.5544,-1.23757 -40.5376,-4.31648 -55.9208,-5.38331 -50.7408,-3.51886 -111.183,-4.77558 -174.6246,-3.63081 -63.10028,1.1386 -102.28056,2.79983 -190.89426,8.09382 -85.16598,5.08801 -117.66807,6.27426 -182.98534,6.67855 -28.57733,0.17688 -56.63509,0.18763 -62.35055,0.0239 z"
     id="path4253" />
</svg>
