<?xml version="1.0" encoding="UTF-8" standalone="no"?>
<svg
   width="1294px"
   height="216px"
   viewBox="0 0 1294 216"
   version="1.1"
   id="svg1374"
   sodipodi:docname="wave-footer.svg"
   inkscape:version="1.1 (c68e22c387, 2021-05-23)"
   xmlns:inkscape="http://www.inkscape.org/namespaces/inkscape"
   xmlns:sodipodi="http://sodipodi.sourceforge.net/DTD/sodipodi-0.dtd"
   xmlns="http://www.w3.org/2000/svg"
   xmlns:svg="http://www.w3.org/2000/svg">
  <sodipodi:namedview
     id="namedview1376"
     pagecolor="#ffffff"
     bordercolor="#666666"
     borderopacity="1.0"
     inkscape:pageshadow="2"
     inkscape:pageopacity="0.0"
     inkscape:pagecheckerboard="0"
     showgrid="false"
     inkscape:zoom="16"
     inkscape:cx="1235.7812"
     inkscape:cy="9.96875"
     inkscape:window-width="1920"
     inkscape:window-height="1001"
     inkscape:window-x="1791"
     inkscape:window-y="-9"
     inkscape:window-maximized="1"
     inkscape:current-layer="svg1374" />
  <!-- Generator: Sketch 46.1 (44463) - http://www.bohemiancoding.com/sketch -->
  <title
     id="title1352">wave_footer</title>
  <desc
     id="desc1354">Created with Sketch.</desc>
  <defs
     id="defs1369">
    <radialGradient
       cx="116.70788%"
       cy="110.133192%"
       fx="116.70788%"
       fy="110.133192%"
       r="147.799618%"
       gradientTransform="translate(1.167079,1.101332),scale(0.166924,1.000000),rotate(-170.639853),translate(-1.167079,-1.101332)"
       id="radialGradient-1">
      <stop
         stop-color="#0069FF"
         offset="0%"
         id="stop1356" />
      <stop
         stop-color="#0269FD"
         offset="2.91250472%"
         id="stop1358" />
      <stop
         stop-color="#0369FC"
         offset="4.5053357%"
         id="stop1360" />
      <stop
         stop-color="#0468FB"
         offset="6.00516035%"
         id="stop1362" />
      <stop
         stop-color="#1165EF"
         offset="25.4821693%"
         id="stop1364" />
      <stop
         stop-color="#4457C0"
         offset="100%"
         id="stop1366" />
    </radialGradient>
  </defs>
  <g
     id="Ressource"
     stroke="none"
     stroke-width="1"
     fill="none"
     fill-rule="evenodd">
    <g
       id="wave_footer"
       fill="url(#radialGradient-1)">
      <path
         d="M0,0 L1294,3.28701505e-11 L1294,216 C1078.47689,206.049898 862.975994,201.074847 647.49731,201.074847 C432.018625,201.074847 216.186189,206.049898 6.60793035e-14,216 L0,0 Z"
         id="Image-Hero-Copy"
         transform="translate(647.000000, 108.000000) scale(1, -1) translate(-647.000000, -108.000000) " />
    </g>
  </g>
  <path
     style="fill:#042855;stroke-width:0.903631"
     d="M 0.45181564,108.20594 V 0.44401197 L 35.467528,1.9539383 C 414.92466,18.316659 794.47858,19.609825 1162.8657,5.7950616 c 30.0261,-1.1259975 38.8989,-1.2093914 39.4174,-0.3704724 0.3681,0.5954396 0.9498,4.1931291 1.2929,7.9948658 0.8382,9.288556 4.3845,28.229584 7.6743,40.988808 12.8025,49.652947 39.2174,97.296777 74.2745,133.967237 l 8.0234,8.3926 v 9.59989 9.59989 H 647 0.45181564 Z"
     id="path1415" />
  <path
     style="fill:#042855;stroke-width:0.903631"
     d="M 0.45181564,108.43575 C 0.45181564,23.009632 0.6840215,0.90472775 1.5813547,0.90896479 2.2026013,0.91189825 21.416061,1.7154905 44.277933,2.6947255 156.91961,7.5194693 265.19246,10.789036 410.70042,13.759758 c 75.30253,1.537393 404.95102,1.542714 479.3764,0.0078 101.48511,-2.093068 184.43978,-4.358742 256.63128,-7.0091663 45.5563,-1.6725448 55.5717,-1.7098474 55.5782,-0.2070015 0,0.6212465 0.8342,6.8224158 1.8478,13.7803768 9.2857,63.740552 35.9249,119.388593 80.1048,167.334813 l 9.3093,10.10293 v 9.0992 9.0992 H 647 0.45181564 Z"
     id="path1454" />
  <path
     style="fill:#042855;stroke-width:0.319482"
     d="m 1290.1951,151.38476 c -33.1627,-41.74178 -53.4487,-90.960863 -59.2204,-143.68391 -0.2769,-2.5295619 -0.4645,-4.6355667 -0.4169,-4.6800107 0.048,-0.044444 3.9682,-0.238537 8.7125,-0.431318 4.7443,-0.192781 9.9359,-0.4349094 11.5369,-0.5380631 l 2.9109,-0.1875522 0.3871,3.6206641 c 2.7101,25.3494739 9.9008,52.0244729 20.4045,75.6935899 4.4587,10.047387 11.5554,23.39124 17.0145,31.99215 l 2.2227,3.50196 -0.082,19.48792 -0.082,19.48792 z"
     id="path2655" />
  <path
     style="fill:#042855;stroke-width:0.319482"
     d="m 1291.1398,112.10939 c -3.1111,-5.05008 -5.5496,-9.33687 -9.0452,-15.901596 -13.8634,-26.034651 -23.7408,-57.426279 -27.3064,-86.7830778 -0.3628,-2.9871558 -0.723,-5.8984347 -0.8005,-6.4695086 -0.1332,-0.982385 -0.086,-1.0387714 0.8774,-1.0467663 0.5601,-0.00465 5.3313,-0.2170918 10.6027,-0.4720983 5.2715,-0.2550065 10.0188,-0.46685427 10.5496,-0.47077274 l 0.9651,-0.007125 0.5708,4.87209914 c 2.141,18.2779666 7.1443,38.2031546 14.0683,56.0264336 l 2.1244,5.468421 -0.082,24.374377 -0.082,24.374374 z"
     id="path2694" />
  <path
     style="fill:#042855;stroke-width:0.319482"
     d="m 1292.8841,64.660237 c -3.8193,-10.296742 -5.132,-14.044537 -6.5182,-18.609703 -4.1363,-13.621903 -6.8514,-26.214851 -8.5808,-39.7981402 -0.3564,-2.7990679 -0.5894,-5.1477243 -0.5179,-5.2192368 0.199,-0.19902965 16.1332,-0.84225573 16.3168,-0.6586713 0.088,0.0885408 0.1244,15.0125163 0.08,33.1643893 l -0.081,33.003404 z"
     id="path2770" />
  <path
     style="fill:#042855;stroke-width:0.319482"
     d="m 1286.9584,189.53264 c -10.7055,-11.33703 -16.1695,-17.7833 -24.3042,-28.6735 -15.9674,-21.37607 -29.2534,-45.19007 -39.5696,-70.924984 -3.1497,-7.857159 -8.3095,-23.218481 -10.4631,-31.149486 -3.5655,-13.130354 -7.0826,-30.62115 -8.48,-42.171611 -0.2657,-2.196438 -0.7279,-5.823692 -1.0271,-8.0605655 -0.2992,-2.236873 -0.4521,-4.1589519 -0.3397,-4.2712864 0.1123,-0.1123344 3.0504,-0.3226272 6.5291,-0.4673174 3.4787,-0.1446901 8.6398,-0.3614615 11.4692,-0.4817142 l 5.1443,-0.2186412 0.2244,2.8361091 c 0.6401,8.0895656 3.0828,23.1754576 5.503,33.9855946 9.6527,43.115045 30.2576,84.980942 58.3935,118.646452 l 3.7038,4.43167 v 16.73401 c 0,9.2037 -0.05,16.734 -0.111,16.734 -0.061,0 -3.0637,-3.12693 -6.6726,-6.94873 z"
     id="path2809" />
  <path
     style="fill:#042855;stroke-width:0.319482"
     d="m 1289.7485,157.95032 c -28.8112,-34.9268 -49.253,-77.186636 -58.6313,-121.209901 -1.8823,-8.835815 -3.9722,-22.287542 -4.9196,-31.6654657 l -0.1812,-1.7939077 1.4799,-0.2028543 c 2.8088,-0.3849819 2.9883,-0.3308827 2.9883,0.9008046 0,0.6070123 0.3679,4.0214751 0.8177,7.5876951 6.5674,52.076497 26.4902,99.320939 59.2828,140.581599 1.4336,1.80381 2.7355,3.36318 2.8931,3.46527 0.1575,0.10209 0.2454,1.71532 0.1953,3.58497 l -0.091,3.39935 z"
     id="path2848" />
  <path
     style="fill:#042855;stroke-width:0.0282385"
     d="m 1230.9717,108.56989 c -0.1056,-0.22132 -0.4328,-0.91705 -0.7271,-1.54606 -4.5177,-9.65648 -8.5227,-19.512941 -12.0093,-29.555078 -0.4909,-1.413815 -1.5381,-4.518862 -1.5381,-4.560452 0,-0.01363 0.06,-0.02471 0.1341,-0.0246 l 0.1341,1.84e-4 0.5271,1.574111 c 2.0067,5.993769 4.0422,11.637263 5.6144,15.565989 2.443,6.105025 5.1771,12.356826 8.1291,18.588256 l 0.1706,0.36005 h -0.1214 -0.1214 z"
     id="path2887" />
  <rect
     style="fill:#042855"
     id="rect2948"
     width="85.393158"
     height="168.52724"
     x="1190.5342"
     y="7.2290502" />
  <rect
     style="fill:#042855"
     id="rect2950"
     width="103.01402"
     height="208.73883"
     x="1190.5342"
     y="7.2290502" />
  <rect
     style="fill:#042855"
     id="rect2952"
     width="100.15758"
     height="8.1467886"
     x="1186.396"
     y="4.9519696" />
  <path
     style="fill:#042855"
     id="path3439"
     d="m 1222.9184,29.43318 c -22.6624,13.194542 -11.2631,6.388187 -7.9391,4.739318 0.8187,-0.406129 1.6547,-0.776867 2.492,-1.143121 1.8184,-0.79539 3.6824,-1.486151 5.5305,-2.208282 2.2453,-0.930457 4.4632,-1.925631 6.6623,-2.960099 0.2436,-0.115606 0.4871,-0.231211 0.7307,-0.346817 0,0 11.2199,-8.965785 11.2199,-8.965785 v 0 c -0.2717,0.138831 -0.5434,0.277662 -0.8151,0.416493 -2.3536,1.20936 -4.747,2.343512 -7.1494,3.452445 -2.0459,0.913432 -4.0983,1.809286 -6.1623,2.6814 -0.046,0.0193 -4.1933,1.74574 -4.4375,1.882217 -4.5593,2.548212 -9.0434,5.228671 -13.565,7.843007 0,0 13.433,-5.390776 13.433,-5.390776 z" />
  <path
     style="fill:#042855;stroke-width:0.112954"
     d="m 1033.2459,9.8291422 c 0,-0.060941 0.1144,-0.1330772 0.2541,-0.1603026 0.1398,-0.027226 3.4564,-0.1316094 7.3703,-0.2319643 14.1614,-0.3631128 59.201,-1.7350145 72.5164,-2.2088458 1.8016,-0.064111 7.037,-0.24285 11.6343,-0.3971984 21.5638,-0.7239912 52.4411,-1.8584356 73.9046,-2.7152862 3.9941,-0.1594471 7.3488,-0.2711592 7.455,-0.2482491 0.1062,0.02291 -0.4931,0.080024 -1.3318,0.1269198 -2.0718,0.1158447 -2.3064,0.1713563 -2.3513,0.5561968 l -0.036,0.3066058 h -7.7147 c -4.243,0 -8.7507,0.049138 -10.0171,0.1091952 -1.2664,0.060057 -4.107,0.1637377 -6.3124,0.2304007 -3.8645,0.1168097 -6.3851,0.206613 -30.0458,1.0704458 -10.6045,0.3871627 -32.1442,1.1360889 -42.2447,1.4688324 -2.8267,0.093119 -6.6643,0.2213616 -8.528,0.2849828 -7.9807,0.2724294 -34.1914,1.0759598 -47.836,1.4664841 -4.3798,0.1253548 -9.6083,0.2784679 -11.6189,0.3402514 -4.5459,0.1396929 -5.0983,0.1398588 -5.0983,0.00153 z"
     id="path3517" />
  <path
     style="fill:#042855;stroke-width:0.0199676"
     d="m 1230.5365,4.667431 c -0.013,-0.1564963 -0.032,-0.4912035 -0.042,-0.7437938 -0.019,-0.4902095 -0.043,-0.6339632 -0.1311,-0.7834833 -0.107,-0.1826423 -0.3216,-0.2629958 -0.7535,-0.2821904 -0.2389,-0.010613 0,-0.024389 1.544,-0.088202 1.0048,-0.041593 3.6278,-0.1516721 5.8288,-0.2446196 2.201,-0.092948 4.0053,-0.1656088 4.0094,-0.1614695 0,0.00414 0.013,0.040088 0.019,0.079887 l 0.012,0.072361 h -0.1147 c -0.2482,0 -5.5648,0.2288964 -7.4283,0.3198094 -2.0835,0.1016441 -2.8854,0.1533776 -2.9219,0.1884921 -0.031,0.029665 -0.015,0.3348253 0.068,1.2779668 0.061,0.7014427 0.062,0.6497812 -0.01,0.6497812 h -0.057 z"
     id="path3556" />
  <path
     style="fill:#042855;stroke-width:0.0199676"
     d="m 1254.0505,4.877091 c -0.01,-0.041183 -0.081,-0.7353076 -0.1656,-1.5424986 -0.085,-0.807191 -0.1569,-1.470548 -0.1596,-1.4741267 0,-0.00358 -0.7132,0.038933 -1.5791,0.094471 -2.5572,0.164031 -3.7771,0.2275832 -7.884,0.4107463 -2.6784,0.1194546 -3.0121,0.1329692 -3.1242,0.1265408 -0.1046,-0.006 -0.1096,-0.00883 -0.1219,-0.06936 l -0.013,-0.063106 0.2217,-0.012384 c 0.122,-0.00681 0.8597,-0.039073 1.6395,-0.071693 2.298,-0.096139 11.165,-0.4763043 11.6211,-0.4982468 0.2307,-0.011095 0.4306,-0.020198 0.4443,-0.020228 0.015,-3.29e-5 0.025,0.026584 0.025,0.066728 v 0.066782 l -0.2945,0.012158 c -0.3031,0.01251 -0.4744,0.038473 -0.5675,0.086032 -0.1501,0.076574 -0.192,0.2647004 -0.1486,0.6667882 0.03,0.2774256 0.264,2.1432734 0.2811,2.2413653 0.01,0.052955 0.01,0.054911 -0.077,0.054911 -0.085,0 -0.087,-0.00151 -0.098,-0.074878 z"
     id="path3595" />
  <path
     style="fill:#042855;stroke-width:0.0199676"
     d=""
     id="path3634" />
  <path
     style="fill:#042855;stroke-width:0.0199676"
     d="m 1226.0051,4.08837 c -0.036,-0.4749797 -0.07,-0.8905796 -0.076,-0.9235552 l -0.01,-0.059956 -2.2201,0.094115 c -1.2211,0.051763 -3.6264,0.1525583 -5.3451,0.2239891 -1.7187,0.071431 -3.199,0.1351503 -3.2896,0.141599 l -0.1648,0.011725 v -0.070928 c 0,-0.062532 0.01,-0.070928 0.05,-0.070928 0.065,0 8.0814,-0.3274414 11.4957,-0.4695633 2.5579,-0.1064753 3.066,-0.1232152 2.6409,-0.086996 -0.3565,0.030374 -0.8999,0.097036 -1.8669,0.2290252 -1.1819,0.1613055 -1.2011,0.1640316 -1.2081,0.1715796 0,0.00517 0.1282,1.36036 0.1569,1.5986149 0.01,0.070092 0.01,0.074878 -0.044,0.074878 h -0.053 z"
     id="path3673" />
  <path
     style="fill:#042855;stroke-width:0.00390625"
     d="m 1253.9913,4.3945312 c 0,-0.00967 8e-4,-0.013623 0,-0.00879 9e-4,0.00483 9e-4,0.012744 0,0.017578 -9e-4,0.00483 0,8.789e-4 0,-0.00879 z"
     id="path3712" />
  <path
     style="fill:#042855;stroke-width:0.00390625"
     d=""
     id="path3751" />
  <path
     style="fill:#042855;stroke-width:0.00390625"
     d="m 1254.0813,4.9454081 c -0.011,-0.00478 -0.02,-0.017825 -0.024,-0.039158 -0.01,-0.042791 -0.025,-0.1872785 -0.1137,-1.03125 -0.063,-0.6039835 -0.098,-0.9363396 -0.1291,-1.2219378 -0.011,-0.099507 -0.019,-0.1843217 -0.019,-0.1884766 0,-0.00717 0,-0.00755 0.066,-0.00755 h 0.066 v 0.043945 c 0.01,0.098154 0.017,0.1969154 0.067,0.6064453 0.087,0.7123476 0.2133,1.7049831 0.2269,1.7883628 0.01,0.053044 0.011,0.051237 -0.07,0.052343 -0.035,4.741e-4 -0.067,-7.498e-4 -0.072,-0.00272 z"
     id="path3790" />
  <path
     style="fill:#042855;stroke-width:0.00390625"
     d="m 1254.0813,4.945275 c -0.011,-0.00459 -0.02,-0.017627 -0.024,-0.039025 -0.01,-0.042954 -0.03,-0.2248732 -0.1157,-1.0488281 -0.057,-0.5481871 -0.108,-1.0275267 -0.1329,-1.258616 -0.01,-0.069192 -0.014,-0.129397 -0.014,-0.1337891 0,-0.00773 0,-0.00799 0.066,-0.00799 h 0.066 v 0.068948 c 0.01,0.1099458 0.028,0.2884864 0.118,1.0072237 0.079,0.6355336 0.1371,1.0914704 0.1606,1.2617188 0.02,0.143501 0.02,0.1427262 0.01,0.1491965 -0.011,0.00581 -0.1216,0.00675 -0.1355,0.00116 z"
     id="path3829" />
  <path
     style="fill:#042855;stroke-width:0.00390625"
     d="m 1254.0801,4.9442475 c -0.023,-0.011414 -0.027,-0.032272 -0.062,-0.3622163 -0.013,-0.1192382 -0.042,-0.3943359 -0.065,-0.6113281 -0.051,-0.4913713 -0.1267,-1.2053276 -0.1446,-1.370788 -0.01,-0.068582 -0.014,-0.1287869 -0.014,-0.1337891 v -0.00909 h 0.066 0.066 v 0.068948 c 0.01,0.1099458 0.028,0.2884864 0.118,1.0072237 0.079,0.6355336 0.1371,1.0914704 0.1606,1.2617188 0.02,0.143501 0.02,0.1427262 0.01,0.1491965 -0.013,0.0068 -0.1231,0.00691 -0.1367,1.293e-4 z"
     id="path3868" />
  <path
     style="fill:#042855;stroke-width:0.00390625"
     d="M 1251.0996,4.953125 V 2.4570313 h 1.3396 1.3396 v 0.016601 c 0,0.026324 0.2638,2.4637034 0.2638,2.4720171 0,0.00716 0,0.00748 0.098,0.00748 0.09,0 0.098,-5.077e-4 0.098,-0.00684 0,-0.017779 -0.1802,-1.4515668 -0.2422,-1.9267578 -0.038,-0.287452 -0.048,-0.3770729 -0.054,-0.4628907 0,-0.030078 0,-0.064795 -0.01,-0.077148 v -0.022461 h 3.9784 3.9785 V 4.953125 7.4492187 h -5.3965 -5.3965 z"
     id="path3907" />
  <rect
     style="fill:#042855"
     id="rect3968"
     width="3.46875"
     height="1.359375"
     x="1252.6094"
     y="2.90625" />
  <rect
     style="fill:#042855"
     id="rect3970"
     width="4.515625"
     height="2.515625"
     x="1251.9531"
     y="2.765625" />
  <rect
     style="fill:#042855"
     id="rect3972"
     width="0.37499866"
     height="0.453125"
     x="1256.4688"
     y="2.3125" />
  <rect
     style="fill:#042855"
     id="rect3974"
     width="2.15625"
     height="1.046875"
     x="1252.8281"
     y="1.90625" />
  <rect
     style="fill:#042855"
     id="rect3976"
     width="5.7010484"
     height="5.6126599"
     x="1274.1622"
     y="1.8119612" />
  <rect
     style="fill:#042855"
     id="rect3978"
     width="7.875"
     height="5.25"
     x="1275.3125"
     y="1.1875" />
</svg>
